<svg xmlns="http://www.w3.org/2000/svg" xmlns:xlink="http://www.w3.org/1999/xlink" xmlns:v="https://vecta.io/nano" width="175" height="175" fill="none"><style><![CDATA[.B{stroke-opacity:.7}.C{fill:#fff}.D{stroke:#263238}.E{stroke-miterlimit:10}.F{opacity:.5}.G{stroke-linejoin:round}.H{fill:#263238}.I{fill-opacity:.7}.J{stroke-width:.5}.K{fill:#bbc3dd}]]></style><g class="D B"><path d="M131.723 95.466H50.988v34.003h80.735V95.466z" fill="#e6ebff" class="G"></path><g class="C E"><path d="M60.27 97.524h-7.595v4.204h7.595v-4.204zm69.584 20.496h-11.963v4.204h11.963v-4.204zm0-15.246h-7.385v4.204h7.385v-4.204zM60.27 112.837h-7.595v4.203h7.595v-4.203zm-1.445-5.065h-6.15v4.204h6.15v-4.204z"></path><use xlink:href="#B"></use><use xlink:href="#B" x="5.369"></use><path d="M67.613 102.648H63.41v4.204h4.203v-4.204z"></path><use xlink:href="#C"></use><use xlink:href="#C" x="5.369"></use><path d="M83.713 102.648H79.51v4.204h4.203v-4.204z"></path><use xlink:href="#B" x="32.2"></use><use xlink:href="#B" x="37.569"></use><path d="M99.813 102.648H95.61v4.204h4.204v-4.204z"></path><use xlink:href="#B" x="48.3"></use><use xlink:href="#B" x="53.669"></use><use xlink:href="#C" x="42.934"></use><use xlink:href="#C" x="48.303"></use><use xlink:href="#B" y="20.559"></use><use xlink:href="#B" x="5.369" y="20.559"></use><path d="M67.613 123.207H63.41v4.204h4.203v-4.204zm6.293 0h-5.131v4.204h5.131v-4.204zm26.835 0H75.068v4.204h25.673v-4.204z"></path><use xlink:href="#C" x="40.596" y="20.559"></use><use xlink:href="#B" x="62.062" y="20.559"></use><use xlink:href="#B" x="67.438" y="20.559"></use><path d="M108.318 123.207h-6.528v4.204h6.528v-4.204z"></path><use xlink:href="#B" x="72.975" y="20.559"></use><use xlink:href="#B" x="7.343" y="5.124"></use><use xlink:href="#B" x="12.708" y="5.124"></use><use xlink:href="#B" x="18.077" y="5.124"></use><use xlink:href="#B" x="23.443" y="5.124"></use><use xlink:href="#B" x="28.812" y="5.124"></use><use xlink:href="#C" x="18.077" y="5.124"></use><use xlink:href="#C" x="23.443" y="5.124"></use><use xlink:href="#C" x="28.811" y="5.124"></use><use xlink:href="#C" x="34.177" y="5.124"></use><use xlink:href="#B" x="55.643" y="5.124"></use><use xlink:href="#B" x="61.012" y="5.124"></use><use xlink:href="#C" x="50.277" y="5.124"></use><path d="M129.853 107.772v9.331h-4.203v-5.124h-1.232v-4.207h5.435zm-64.399 5.124H61.25v4.203h4.204v-4.203zm5.365 0h-4.204v4.203h4.204v-4.203zm5.366 0h-4.204v4.203h4.204v-4.203zm5.369 0H77.35v4.203h4.204v-4.203z"></path><use xlink:href="#D"></use><use xlink:href="#D" x="5.369"></use><path d="M97.654 112.896H93.45v4.203h4.203v-4.203zm5.365 0h-4.204v4.203h4.204v-4.203z"></path><use xlink:href="#D" x="21.469"></use><path d="M113.754 112.896h-4.204v4.203h4.204v-4.203z"></path><use xlink:href="#D" x="32.2"></use><use xlink:href="#D" x="37.569"></use><use xlink:href="#C" x="-9.807" y="15.372"></use><use xlink:href="#B" x="11.658" y="15.372"></use><use xlink:href="#B" x="17.027" y="15.372"></use><use xlink:href="#B" x="22.393" y="15.372"></use><use xlink:href="#B" x="27.758" y="15.372"></use><use xlink:href="#B" x="33.127" y="15.372"></use><use xlink:href="#C" x="22.393" y="15.372"></use><use xlink:href="#B" x="43.862" y="15.372"></use><use xlink:href="#C" x="33.127" y="15.372"></use><use xlink:href="#C" x="38.492" y="15.372"></use><use xlink:href="#B" x="59.962" y="15.372"></use><path d="M65.454 97.776H61.25v4.204h4.204v-4.204z"></path><use xlink:href="#B" x="13.94" y="-4.872"></use><use xlink:href="#B" x="19.306" y="-4.872"></use><path d="M81.554 97.776H77.35v4.204h4.204v-4.204z"></path><use xlink:href="#C" x="13.94" y="-4.872"></use><use xlink:href="#C" x="19.309" y="-4.872"></use><path d="M97.654 97.776H93.45v4.204h4.203v-4.204z"></path><use xlink:href="#B" x="46.14" y="-4.872"></use><use xlink:href="#C" x="35.409" y="-4.872"></use><use xlink:href="#B" x="56.875" y="-4.872"></use><use xlink:href="#C" x="46.14" y="-4.872"></use><use xlink:href="#C" x="51.509" y="-4.872"></use><use xlink:href="#B" x="72.975" y="-4.872"></use><path d="M57.768 118.02h-5.093v4.204h5.093v-4.204z"></path></g></g><path d="M50.988 95.683l1.687-.56h77.952l1.11.553-80.749.007z" class="H I"></path><path opacity=".2" d="M108.616 154l-1.642-9.887a8.07 8.07 0 0 0-2.222-3.871c-3.266-3.15-7.581-6.384-7.767-10.5-.284-6.3-1.267-6.122-1.162-7.679a18.98 18.98 0 0 0 1.124-2.31 13.5 13.5 0 0 0 .476-1.869c.067-.311.247-.586.506-.771a1.28 1.28 0 0 1 .894-.227c.444.059.858.253 1.186.557.578.616.896 1.43.889 2.275-.01.835-.128 1.665-.35 2.471a16.13 16.13 0 0 1 1.05 4.343c.375-1.155.658-2.32 1.033-3.472.077-.042.049-.133.122-.175-.528-1.134-.08-1.071-1.127-3.566-1.75-4.2-3.724-8.25-5.127-13.528a3 3 0 0 1 .031-1.484c.507-1.508 2.061-1.162 2.74-.283.178.231.319.489.42.763.921 2.248 2.043 4.409 3.35 6.457l3.812 5.81s1.326-1.088 1.529-1.575.298-4.434.298-4.434-.301.738-.97.7c-.483-.035-1.463.245-2.159-.539a1.82 1.82 0 0 1-.436-1.134c-.012-.416.12-.824.373-1.155l1.725-2.331c.378-.299.831-.487 1.309-.544a2.62 2.62 0 0 1 1.4.218c1.114.56 2.141 1.28 3.049 2.135.911-.026 1.816.149 2.653.511 1.221.588 2.502 2.275 2.502 2.275s1.425.088 2.065.553c.161.116 2.335 3.5 1.551 6.136-.466 1.571-.753 3.85-.963 4.466l-1.067 15.431 2.152 10.15-4.602 2.566c-1.682.937-3.442 1.725-5.261 2.355L108.616 154z" fill="#000" fill-opacity=".4"></path><path d="M121.685 135.968l.042-15.474c.168-.623.304-2.919.661-4.518.609-2.681-1.785-5.915-1.953-6.02-.672-.416-2.1-.41-2.1-.41s-1.4-1.599-2.649-2.1a6.27 6.27 0 0 0-2.681-.35 12.85 12.85 0 0 0-3.185-1.928c-.451-.17-.939-.213-1.412-.124s-.912.306-1.269.628l-1.565 2.45c-.231.347-.335.763-.297 1.179a1.82 1.82 0 0 0 .511 1.103c.749.739 1.708.392 2.191.392.668 0 .92-.756.92-.756v4.441c-.171.501-1.424 1.673-1.424 1.673l-4.2-5.54c-1.443-1.956-2.705-4.039-3.77-6.223a2.96 2.96 0 0 0-.472-.731c-.735-.833-2.306-1.075-2.716.461a3.05 3.05 0 0 0 .066 1.485c1.75 5.173 3.983 9.082 6.017 13.156 1.207 2.419.759 2.39 1.361 3.482-.07.049-.035.14-.112.186-.294 1.176-.5 2.356-.798 3.532-.246-1.477-.698-2.912-1.34-4.264.169-.819.232-1.656.185-2.492-.053-.843-.429-1.635-1.05-2.208a2.16 2.16 0 0 0-1.222-.476 1.27 1.27 0 0 0-1.344 1.092c-.07.639-.187 1.272-.35 1.894-.268.814-.591 1.609-.966 2.38 0 1.56.966 1.305 1.669 7.584.546 4.9 6.846 8.124 10.276 11.655l3.654 11.501a70.8 70.8 0 0 0 12.236-6.401l-2.915-10.259z" class="C"></path><g class="K"><use xlink:href="#E"></use><use xlink:href="#E"></use></g><use xlink:href="#E" class="C F"></use><g class="K"><use xlink:href="#F"></use><use xlink:href="#F"></use></g><g class="F C"><use xlink:href="#F"></use></g><g class="K"><use xlink:href="#G"></use><use xlink:href="#H"></use></g><g class="C F"><use xlink:href="#G"></use><use xlink:href="#H"></use></g><use xlink:href="#I" class="K"></use><use xlink:href="#I" class="C F"></use><g class="K"><use xlink:href="#J"></use><use xlink:href="#K"></use><path d="M110.817 105.847a3.5 3.5 0 0 0-1.655-.7l1.655.7z"></path><use xlink:href="#L"></use><path d="M108.269 110.576c.42-.369.684-.883.739-1.439.048-.492.035-.988-.039-1.477-.036.113-.112.209-.214.27s-.222.083-.339.063c-.288-.112-.523-.327-.661-.602l-.126.437-.053-.238-.168.214c.249.7.49 1.515.105 2.156-.207.296-.476.544-.787.728a1.33 1.33 0 0 0 1.543-.112z"></path><path d="M108.948 107.485l.021.176a.28.28 0 0 0-.021-.176z"></path><use xlink:href="#M"></use><use xlink:href="#N"></use><path d="M109.512 121.926c-.224.392.7 1.953.843 2.324l2.314 5.653c-.257-2.485-.86-4.921-1.792-7.238-.158-.389-.921-1.519-1.365-.739zm1.197-9.982c-.133.2-.319.445-.546.375s-.252-.35-.249-.571l.067-3.93c-1.05.759-.924 1.75-.998 2.884-.042.654.147 3.78-.301 4.161 1.049-.895 1.93-1.968 2.604-3.171-.182-.15-.448.053-.577.252z"></path></g><g class="C F"><use xlink:href="#J"></use><use xlink:href="#K"></use><path d="M110.817 105.847a3.5 3.5 0 0 0-1.656-.7l1.656.7z"></path><use xlink:href="#L"></use><path d="M108.269 110.576c.42-.369.684-.883.739-1.439.048-.492.035-.988-.039-1.477-.036.113-.112.209-.214.27s-.222.083-.339.063a1.25 1.25 0 0 1-.662-.602l-.125.437-.053-.238-.168.214c.248.7.49 1.515.105 2.156a2.53 2.53 0 0 1-.788.728c.237.144.513.211.79.191a1.33 1.33 0 0 0 .754-.303z"></path><path d="M108.948 107.485l.021.176a.28.28 0 0 0-.021-.176z"></path><use xlink:href="#M"></use><use xlink:href="#N"></use><path d="M109.512 121.926c-.224.392.699 1.953.843 2.324l2.314 5.653c-.257-2.485-.86-4.921-1.792-7.238-.158-.389-.921-1.519-1.365-.739zm1.196-9.982c-.133.2-.318.445-.546.375s-.252-.35-.248-.571l.066-3.93c-1.05.759-.924 1.75-.997 2.884-.042.654.147 3.78-.301 4.161 1.049-.895 1.93-1.968 2.604-3.171-.182-.15-.448.053-.578.252z"></path></g><path d="M97.85 120.781c-.406.322-.753.712-1.026 1.152l1.026-1.152z" class="C"></path><g class="D E B"><path d="M112.389 152.632l-3.654-11.501c-3.43-3.532-9.731-6.762-10.276-11.655-.7-6.279-1.669-6.024-1.669-7.585.375-.771.698-1.566.966-2.38a13.15 13.15 0 0 0 .35-1.893c.045-.318.209-.607.458-.81s.566-.303.886-.282c.447.028.874.194 1.222.476.621.573.997 1.364 1.05 2.208a9.65 9.65 0 0 1-.186 2.492 16.12 16.12 0 0 1 1.341 4.263c.297-1.176.504-2.355.798-3.531.077-.046.042-.137.112-.186-.602-1.092-.154-1.05-1.362-3.482-2.033-4.074-4.263-7.984-6.017-13.157-.144-.482-.167-.991-.067-1.484.41-1.536 1.981-1.295 2.716-.462.192.219.352.466.472.732 1.066 2.184 2.326 4.267 3.77 6.223l4.2 5.54s1.253-1.172 1.425-1.673c.164-.5 0-4.441 0-4.441s-.252.756-.921.756c-.483 0-1.442.35-2.191-.392-.291-.299-.471-.688-.51-1.104a1.82 1.82 0 0 1 .297-1.178l1.564-2.45c.358-.322.797-.54 1.27-.629a2.61 2.61 0 0 1 1.411.125 12.81 12.81 0 0 1 3.185 1.928 6.25 6.25 0 0 1 2.681.35c1.26.508 2.65 2.1 2.65 2.1s1.424 0 2.1.41c.168.105 2.562 3.339 1.953 6.02-.35 1.599-.494 3.895-.662 4.518l-.042 15.474 2.891 10.255"></path><path d="M113.4 107.656a27.59 27.59 0 0 1 .952 7c-.02.397.023.794.126 1.176.055.191.157.365.297.505s.314.242.505.297" class="J"></path><path d="M118.339 109.956c1.05 2.191-.025 7.088.052 7.431.033.174.102.339.204.484s.234.266.388.356"></path><path d="M109.316 107.359l-.35 2.198c-.408-.35-.742-.778-.983-1.259a4.04 4.04 0 0 1-.417-1.541" class="J"></path><path d="M102.61 126.031l-.76.319"></path><path d="M102.802 126.637c-.121.584-.121 1.187 0 1.771m4.424-8.309l.837 1.508m.787-7.031l.833-1.176m10.867 6.699l-.252.92m-1.784-3.443l.738-2.352m1.726-1.824a.95.95 0 0 1 1.274.396m-6.304-4.41c.29-.082.597-.089.891-.022a1.81 1.81 0 0 1 .792.407m-17.272 1.949a2.57 2.57 0 0 1 .987-.67 2.56 2.56 0 0 1 1.183-.149m-5.33-5.782a2.34 2.34 0 0 1 .834-.381c.3-.071.612-.082.916-.032m-1.099 16.075c-.406.322-.753.712-1.026 1.152m1.362-2.74c.553-.396 1.435.486 1.942.035a.81.81 0 0 0 .172-.756 2.62 2.62 0 0 1-.102-.802m13.594-.906a6.34 6.34 0 0 1 .385 4.487m3.682-2.328a2.91 2.91 0 0 1-.35 1.925" class="J"></path></g><path opacity=".2" d="M84.018 124.177a2.12 2.12 0 0 1-.031.728l-1.127 5.803c-.287 2.051-3.602 8.4-3.602 8.4l-4.606 5.768c-.763.969-1.971 4.9-2.996 8.631l-3.85-1.267-3.15-1.18c-1.873-.778-3.699-1.666-5.467-2.66l.963-3.829c-.018-.22 1.246-2.653 1.246-2.653L60.295 127.4l-.651-2.208c-.338-1.141-.553-2.314-.641-3.5a16.92 16.92 0 0 1 .452-5.366l1.9-2.821.889-.066 2.751-3.85s1.487-.448 1.869.672-1.239 3.213-1.239 3.213l-.556 3.454 1.323 3.234.7.252.074-6.832 1.435-5.176a24.76 24.76 0 0 0 1.141-2.611c.266-.872 1.831-1.75 2.73-.207a2.25 2.25 0 0 1 .268.907c.024.318-.02.638-.128.938l-.672 1.907-.437 4.526c-.087.122.648 6.555.648 6.555l.574.256.203-6.143 1.194-5.771s-.098-2.776 1.858-2.45c.302-.012.6.067.857.227s.459.393.582.669c.522.997.025 7.64.025 7.64l.483 6.867.773 5.296.91-3.63s.052-5.201 3.335-5.645c0 0 .977-.175 1.176.504s-.487 2.065-.388 3.395l.287 2.541z" fill="#000" fill-opacity=".4"></path><path d="M83.02 117.747c-.15-.7-1.134-.591-1.134-.591-3.307.196-3.752 5.379-3.752 5.379l-1.186 3.549-.35-5.341.035-6.884s1.001-6.587.556-7.62a1.51 1.51 0 0 0-.53-.711c-.244-.178-.536-.279-.838-.29-1.925-.483-2.037 2.293-2.037 2.293l-1.624 5.663-.668 6.107-.553-.294-.151-6.59c.112-.109.777-4.477.777-4.477l.816-1.851c.131-.291.199-.607.199-.926s-.068-.635-.199-.926c-.78-1.589-2.404-.847-2.74 0a24.67 24.67 0 0 1-1.33 2.517l-1.855 5.071c.07 1.148-.588 6.811-.588 6.811l-.669-.304-1.074-3.325.819-3.406s1.775-1.96 1.477-3.108-1.813-.812-1.813-.812l-3.048 3.619h-.892l-2.1 2.664c-.946 2.854-1.113 5.91-.483 8.851l.483 2.251v14.546l-1.442 2.551c0 .102-.595 1.939-1.425 4.232 3.63 2.135 6.755 3.787 8.971 4.658 1.05.413 2.1.805 3.15 1.18 1.33-3.735 2.884-7.728 3.742-8.663l5.033-5.404s3.784-6.079 4.228-8.099c.35-1.659 1.253-4.672 1.561-5.705a2.02 2.02 0 0 0 .084-.724c-.025-.546-.077-1.607-.077-2.541-.014-1.327.777-2.66.63-3.35z" class="C"></path><path d="M55.689 146.402l1.425-4.232c0-.22 1.442-2.551 1.442-2.551v-14.546l-.483-2.251c-.63-2.941-.463-5.997.483-8.851l2.1-2.664h.892l3.031-3.626s1.519-.35 1.813.812-1.477 3.108-1.477 3.108l-.819 3.406 1.075 3.325.668.304.588-6.811 1.855-5.071a24.67 24.67 0 0 0 1.33-2.517c.35-.847 1.96-1.589 2.74 0 .131.291.199.607.199.926s-.068.635-.199.926l-.816 1.851-.777 4.477c-.112.112.15 6.59.15 6.59l.553.294.669-6.107 1.624-5.663s.112-2.776 2.037-2.293c.302.011.594.112.838.29a1.51 1.51 0 0 1 .53.711c.445 1.033-.556 7.62-.556 7.62l-.025 6.891.35 5.341 1.186-3.549s.445-5.183 3.752-5.379c0 0 .984-.102 1.134.591s-.644 2.023-.644 3.357l.077 2.541a2.02 2.02 0 0 1-.084.724l-1.561 5.705c-.444 2.02-4.228 8.099-4.228 8.099l-5.033 5.404c-.858.935-2.412 4.928-3.742 8.663" stroke="#8b989f" class="E"></path><path d="M65.8 119.182a2.1 2.1 0 0 1-.497 1.995" class="C"></path><path d="M65.8 119.182a2.1 2.1 0 0 1-.497 1.995" class="B D E J"></path><use xlink:href="#O" class="C"></use><g class="D E B"><use xlink:href="#O"></use><path d="M74.099 107.842c.574-.151 1.177-.151 1.75 0l.017-.49m-6.363-1.694a1.11 1.11 0 0 0 .57.192 1.12 1.12 0 0 0 .587-.13c.18-.096.331-.24.435-.416a1.12 1.12 0 0 0 .157-.58m10.9 13.083a2.14 2.14 0 0 0-1.202.818c-.293.404-.436.898-.404 1.397l.858.259" class="J"></path></g><path d="M70.889 118.234c.038.588-.035 1.991 0 2.579v-2.579z" class="C"></path><path d="M70.889 118.234c.038.588-.035 1.991 0 2.579" class="B D E"></path><path d="M71.533 119.049l-.213 2.884v-.367" class="C"></path><path d="M71.533 119.049l-.213 2.884v-.367" class="B D E"></path><path d="M76.874 127.159a4.81 4.81 0 0 1-.329 3.171l.329-3.171z" class="C"></path><g class="D B"><path d="M76.874 127.159a4.81 4.81 0 0 1-.329 3.171m-8.543-8.215c-.763.836-.651 2.845-.112 3.948m5.75-2.565a3.93 3.93 0 0 1-.934 2.565M62.444 122.5c-.127.853.058 1.723.522 2.45m-3.77.179a2.99 2.99 0 0 0 .539 1.869m3.913-18.004a1.1 1.1 0 0 1 .643-.09 1.11 1.11 0 0 1 .582.286l.43-.571m1.936 2.943a1.46 1.46 0 0 1 .983-.182c.339.057.647.232.869.494m3.755 1.439a2.33 2.33 0 0 1 1-.201 2.34 2.34 0 0 1 .991.243m-14.469 2.894a1.89 1.89 0 0 1 1.834-.91m-4.182 4.256c.011-.226.1-.442.251-.612a.99.99 0 0 1 .579-.319" class="E J"></path><g class="G"><path d="M150.003 35.837l-117.414.535 1.774-2.663a4.61 4.61 0 0 1 3.829-2.047h106.246c.688 0 1.367.155 1.987.452s1.166.73 1.597 1.266l1.981 2.457z" class="C"></path><path d="M93.342 53.435h-6.433c-6.601 0-11.952 5.351-11.952 11.953v6.433c0 6.601 5.351 11.953 11.953 11.953h6.433c6.601 0 11.953-5.351 11.953-11.952v-6.433c0-6.601-5.351-11.952-11.952-11.952z" fill="#ecf1ff"></path><path d="M80.469 71.169v4.312a2.45 2.45 0 0 0 2.45 2.45h14.795a2.45 2.45 0 0 0 2.45-2.433l.123-4.329H80.469z" fill="#c3eafb"></path><path d="M134.617 72.608H48.094c-.445.001-.88-.132-1.248-.382s-.653-.605-.817-1.018L32.683 36.946c-.081-.207-.11-.43-.085-.65s.103-.431.228-.615.292-.334.488-.438.414-.159.636-.159h114.8a1.36 1.36 0 0 1 1.129.594 1.36 1.36 0 0 1 .23.616 1.37 1.37 0 0 1-.085.652l-13.346 34.251a2.21 2.21 0 0 1-2.061 1.41z" fill="#bfbfbf"></path></g></g><path d="M135.257 69.626H47.243l-12.11-32.372h112.179l-12.055 32.372z" fill="#fcfeff"></path><path d="M100.184 72.562H80.563v1.344h19.621v-1.344z" class="H I"></path><path d="M122.402 68.25H60.249c-.35 0-.665-.154-.728-.35L50.68 39.799c-.098-.315.178-.57.62-.57h80.053c.441 0 .7.255.616.57L123.13 67.9c-.063.178-.388.35-.728.35z" fill="#a3aed3"></path><g class="C"><path d="M69.335 49.046H57.656c-.291 0-.48.154-.424.35a.63.63 0 0 0 .255.269.64.64 0 0 0 .361.081h11.613c.287 0 .49-.154.459-.35s-.297-.35-.585-.35zm.389 2.131h-9.933c-.284 0-.473.151-.42.35a.62.62 0 0 0 .599.332h9.877c.283 0 .483-.15.451-.332s-.297-.35-.574-.35z"></path><path d="M70.102 53.235h-11.27c-.28 0-.462.147-.413.322.057.106.144.193.249.25s.226.082.346.072h11.2c.276 0 .476-.143.445-.322s-.276-.322-.556-.322z" class="F"></path><path d="M70.466 55.223h-6.619c-.273 0-.462.14-.42.312s.297.311.571.311h6.584c.273 0 .469-.14.438-.311s-.28-.312-.553-.312zm.353 1.918H59.927c-.266 0-.448.137-.399.305s.301.297.571.297h10.829c.27 0 .462-.133.434-.297s-.273-.305-.543-.305zm.34 1.859h-8.792c-.266 0-.445.13-.403.291s.291.291.553.291h8.75c.263 0 .452-.13.424-.291S71.425 59 71.159 59zm.329 1.795H62.84c-.262 0-.437.126-.395.28s.283.283.542.283h8.607c.259 0 .445-.126.416-.283s-.259-.28-.522-.28zm.318 1.736h-9.45c-.256 0-.431.123-.389.273s.28.273.535.273h9.391c.255 0 .441-.122.413-.273s-.242-.273-.501-.273z"></path><path d="M72.118 64.215h-6.097c-.252 0-.427.119-.392.266s.269.262.518.262h6.066c.252 0 .434-.119.409-.262s-.252-.266-.504-.266zm-3.189-17.381h-8.705c-.294 0-.49.161-.437.35a.63.63 0 0 0 .62.35h8.652c.294 0 .501-.157.466-.35a.58.58 0 0 0-.595-.35z" class="F"></path><path d="M68.506 44.541H56.389c-.297 0-.493.168-.434.375a.67.67 0 0 0 .266.283c.115.066.246.097.378.088h12.043c.297 0 .511-.168.473-.371a.59.59 0 0 0-.609-.375zm3.909 21.305H62.374c-.248 0-.416.115-.378.255s.273.255.522.255h9.993c.245 0 .427-.112.403-.255s-.249-.255-.497-.255z"></path><path d="M73.437 49.823h2.264l-.112-.864h-2.282l.129.864zm.315 2.107h2.226l-.108-.836h-2.243l.126.836zm.305 2.03h2.188l-.105-.805h-2.201l.119.805zm.294 1.963h2.153l-.105-.777h-2.163l.115.777zm.287 1.897h2.114l-.101-.752h-2.125l.112.752zm.273 1.834h2.079l-.095-.728h-2.093l.108.728zm.269 1.775h2.044l-.091-.703h-2.058l.105.703zm.256 1.715h2.012l-.087-.679h-2.026l.102.679zm.252 1.665h1.981l-.087-.661h-1.995l.102.661zm-2.58-17.167h2.307l-.115-.896h-2.324l.133.896zm-.339-2.264h2.349l-.119-.931h-2.37l.14.931zm3.16 21.045h1.95l-.084-.641h-1.963l.098.641z" class="F"></path><path d="M87.868 62.804c0-.151.196-.273.451-.273h33.537c.255 0 .427.123.385.273a.57.57 0 0 1-.539.273H88.337c-.255 0-.466-.122-.469-.273zm34.327-1.445h-18.571c-.259 0-.455-.126-.437-.283s.242-.28.504-.28h18.665c.259 0 .435.126.389.28a.58.58 0 0 1-.233.223.57.57 0 0 1-.317.061z"></path><path d="M99.218 61.359H93.45c-.259 0-.469-.126-.466-.283s.213-.28.476-.28h5.8c.259 0 .462.126.448.28s-.231.283-.49.283z" class="F"></path><path d="M111.272 59.581H85.078c-.263 0-.483-.13-.493-.291s.196-.291.462-.291h26.334c.263 0 .455.13.424.291s-.266.291-.532.291z"></path><path d="M79.601 59h1.869c.263 0 .49.13.504.291s-.189.291-.451.291h-1.859c-.263 0-.49-.13-.507-.291s.182-.291.444-.291z" class="F"></path><path d="M115.063 57.446c-.035.164-.281.297-.55.297H89.831c-.27 0-.487-.133-.49-.297s.214-.305.48-.305h24.819c.27 0 .459.137.424.305zm-35.658-.305h7c.27 0 .493.137.501.305s-.207.297-.472.297h-6.965c-.266 0-.497-.133-.518-.297s.186-.305.455-.305zm-.207-1.918h26.929c.273 0 .476.14.452.312s-.263.311-.536.311H79.265c-.269 0-.507-.14-.525-.311s.185-.312.458-.312zm17.483-1.344c-.276 0-.493-.143-.486-.322s.238-.322.518-.322h14.207c.28 0 .479.147.448.322s-.28.322-.557.322h-14.13zm-17.693-.644h12.296c.28 0 .504.147.504.322s-.227.322-.504.322H79.058c-.28 0-.518-.143-.539-.322s.189-.322.469-.322zm45.938-1.389H91.077c-.28 0-.511-.151-.511-.333s.227-.35.511-.35h34.038c.283 0 .469.151.416.35-.058.108-.146.197-.253.256s-.23.086-.352.077zm.602-2.107H95.746c-.287 0-.514-.154-.507-.35s.245-.35.532-.35h29.957c.287 0 .476.154.42.35-.057.113-.146.207-.257.269a.64.64 0 0 1-.362.081z"></path><path d="M126.157 47.551h-6.237c-.294 0-.493-.157-.448-.35a.62.62 0 0 1 .254-.272c.11-.063.236-.09.362-.078h6.262c.294 0 .486.161.427.35a.65.65 0 0 1-.62.35z" class="F"></path><path d="M115.556 47.551h-22.9c-.291 0-.529-.157-.525-.35s.238-.35.532-.35H115.7c.294 0 .497.161.459.35a.59.59 0 0 1-.245.271.6.6 0 0 1-.357.079zM80.15 64.215h21.15c.252 0 .445.119.427.266s-.227.262-.479.262H80.217c-.252 0-.469-.119-.486-.262s.175-.266.42-.266zm.182 1.631h32.494c.245 0 .424.115.392.255s-.252.255-.501.255H80.388c-.249 0-.462-.112-.476-.255s.171-.255.42-.255zm34.087-20.559H97.878c-.297 0-.528-.168-.518-.371s.259-.375.56-.375h16.64c.301 0 .511.168.472.375a.61.61 0 0 1-.612.371z"></path><path d="M93.188 45.287h-15.05c-.297 0-.56-.168-.581-.371s.2-.375.501-.375h15.138c.297 0 .539.168.535.375s-.245.371-.543.371zm12.81 18.928c.252 0 .44.119.419.266s-.241.262-.493.262H104.3c-.248 0-.438-.119-.42-.262s.235-.266.487-.266h1.631zm-20.059-1.411c0 .151-.192.273-.448.273h-2.226c-.255 0-.472-.122-.483-.273s.186-.273.441-.273h2.237c.255 0 .472.119.479.273zm26.862-7.269c-.031.172-.28.311-.549.311h-2.604c-.273 0-.469-.14-.445-.311s.273-.312.546-.312h2.618c.273 0 .469.14.434.312zm8.124 1.606c.269 0 .451.137.406.305-.055.099-.137.18-.237.233a.59.59 0 0 1-.327.065h-2.075c-.27 0-.452-.133-.413-.297.052-.101.133-.184.233-.238a.57.57 0 0 1 .327-.066h2.086zm-33.946-5.295c-.28 0-.514-.151-.525-.333s.217-.35.5-.35h2.209c.284 0 .515.151.518.35s-.224.333-.504.333h-2.198z" class="F"></path><path d="M56.9 41.069c.053.118.075.247.063.376s-.057.252-.132.358a.75.75 0 0 1-.291.246c-.116.055-.246.079-.375.07a1.55 1.55 0 0 1-.849-.315c-.245-.187-.43-.443-.529-.735a.75.75 0 0 1-.063-.374c.011-.128.056-.251.13-.357s.173-.191.288-.247.244-.081.372-.073a1.55 1.55 0 0 1 .855.312c.248.187.432.444.532.738zm2.849.018a.77.77 0 0 1-.77 1.05c-.304-.017-.596-.127-.836-.314s-.417-.444-.508-.736c-.046-.12-.062-.251-.045-.378s.065-.25.141-.354.177-.188.293-.244a.77.77 0 0 1 .374-.074c.306.014.6.123.842.311a1.48 1.48 0 0 1 .509.739zm2.88-.018a.8.8 0 0 1 .032.385.79.79 0 0 1-.153.355c-.08.104-.183.186-.302.241a.79.79 0 0 1-.38.07 1.43 1.43 0 0 1-1.312-1.05.8.8 0 0 1-.031-.383c.021-.128.073-.249.152-.353a.8.8 0 0 1 .677-.314 1.42 1.42 0 0 1 1.316 1.05z"></path><path opacity=".1" d="M35.133 37.254l9.432 25.211 11.379-25.211H35.133zm15.915 32.372l18.876-32.372h19.757l-27.78 32.372H51.048zm47.148-32.533L68.775 69.626h4.532l30.474-32.372-5.586-.161zm5.81 32.533l32.333-32.372h4.564l-33.338 32.372h-3.559z"></path><path d="M64.142 84H56.75A1.75 1.75 0 0 0 55 85.75v3.594a1.75 1.75 0 0 0 1.75 1.75h1.932l1.459 3.314 2.062-3.314h1.932a1.75 1.75 0 0 0 1.75-1.75v-3.609A1.75 1.75 0 0 0 64.142 84z" class="B D G"></path></g><path d="M58.311 88.168h-1.886a.73.73 0 0 0 .78.578.86.86 0 0 0 .651-.263l.301.35c-.182.181-.411.306-.662.361a1.35 1.35 0 0 1-.752-.051c-.241-.088-.451-.243-.607-.447a1.35 1.35 0 0 1-.272-.703 1.2 1.2 0 0 1 .084-.478c.06-.152.152-.29.268-.405a1.21 1.21 0 0 1 .407-.265 1.17 1.17 0 0 1 .479-.08 1.17 1.17 0 0 1 .884.351 1.16 1.16 0 0 1 .26.411 1.17 1.17 0 0 1 .071.481l-.007.161zm-1.89-.371H57.8a.65.65 0 0 0-.679-.585.66.66 0 0 0-.7.585zm2.429-1.941h.56v3.336h-.56v-3.336zm1.05 3.097l.214-.427a1.62 1.62 0 0 0 .837.238c.35 0 .504-.098.504-.266 0-.459-1.484-.028-1.484-.983 0-.455.41-.752 1.05-.752a1.93 1.93 0 0 1 .899.206l-.217.427a1.32 1.32 0 0 0-.7-.178c-.35 0-.504.112-.504.269 0 .487 1.484.053 1.484.994 0 .448-.413.742-1.089.742a1.89 1.89 0 0 1-.994-.269zm4.82-.785h-1.886a.73.73 0 0 0 .781.578.86.86 0 0 0 .651-.263l.301.35c-.182.181-.411.306-.662.361a1.35 1.35 0 0 1-.752-.051c-.241-.088-.451-.243-.607-.447a1.35 1.35 0 0 1-.272-.703 1.2 1.2 0 0 1 .084-.478c.06-.152.152-.29.268-.405a1.21 1.21 0 0 1 .407-.265 1.17 1.17 0 0 1 .479-.08 1.17 1.17 0 0 1 .884.351 1.16 1.16 0 0 1 .26.411 1.17 1.17 0 0 1 .071.481l-.007.161zm-1.89-.371h1.361a.65.65 0 0 0-.679-.585.66.66 0 0 0-.682.585z" class="H I"></path><path d="M104.433 83.965h-7.385a1.75 1.75 0 0 0-1.75 1.733v3.594a1.75 1.75 0 0 0 1.75 1.75h1.932l1.46 3.314 2.061-3.314h1.932a1.75 1.75 0 0 0 1.237-.513c.329-.328.513-.773.513-1.237v-3.594a1.75 1.75 0 0 0-1.75-1.733z" class="B C D G"></path><path d="M98.742 86.625v.144h.658v.451h-.644v1.932h-.56V87.22h-.395v-.451h.395v-.151a.76.76 0 0 1 .048-.334c.041-.107.103-.203.184-.282s.179-.14.287-.178.222-.051.335-.039a.89.89 0 0 1 .508.129l-.157.424a.54.54 0 0 0-.308-.098c-.227 0-.35.13-.35.385zm.805 1.327a1.28 1.28 0 0 1 .192-.725c.135-.217.331-.389.565-.493a1.28 1.28 0 0 1 1.71 1.65 1.27 1.27 0 0 1-.472.582 1.28 1.28 0 0 1-.717.218 1.21 1.21 0 0 1-.489-.074c-.156-.058-.299-.148-.419-.263a1.21 1.21 0 0 1-.37-.895zm1.991 0c-.01-.136-.059-.266-.142-.374s-.196-.19-.324-.234a.7.7 0 0 0-.921.542.7.7 0 0 0 .305.703.69.69 0 0 0 .382.115c.097 0 .193-.019.281-.058a.7.7 0 0 0 .382-.41c.032-.091.045-.188.037-.284zm2.493-1.229v.535a.91.91 0 0 0-.13 0 .65.65 0 0 0-.287.042c-.091.035-.174.09-.241.162a.66.66 0 0 0-.172.539v1.165h-.563v-2.401h.535v.35a.94.94 0 0 1 .377-.31c.15-.069.316-.097.481-.082z" class="H I"></path><path d="M125.909 83.675h-7.385a1.75 1.75 0 0 0-1.237.513c-.329.328-.513.773-.513 1.237v3.591c0 .464.184.909.513 1.237a1.75 1.75 0 0 0 1.237.513h1.932l1.46 3.314 2.061-3.314h1.932a1.75 1.75 0 0 0 1.237-.513c.329-.328.513-.773.513-1.237V85.4a1.75 1.75 0 0 0-1.75-1.725z" class="B C D G"></path><path d="M121.258 86.342h2.072v.459h-2.072v-.459zm0 1.088h2.072v.452h-2.072v-.452z" class="H I"></path><path d="M82.135 79H74.75A1.75 1.75 0 0 0 73 80.75v3.591a1.75 1.75 0 0 0 1.75 1.75h1.932l1.463 3.315 2.062-3.315h1.928a1.75 1.75 0 0 0 1.75-1.75v-3.605A1.75 1.75 0 0 0 82.135 79z" class="B C D G"></path><path d="M76.941 82.584c.178.056.266.178.266.459v.854a.3.3 0 0 0 .35.35h.094v.452h-.227a.67.67 0 0 1-.763-.735v-.924c0-.15-.077-.217-.203-.217h-.147v-.459h.147c.126 0 .203-.067.203-.217v-.924a.67.67 0 0 1 .763-.735h.227v.452h-.094a.3.3 0 0 0-.35.35v.854c0 .259-.087.382-.266.441zm3.43-.231v.448h-.154c-.123 0-.2.067-.2.217v.924a.67.67 0 0 1-.767.735h-.228v-.441h.094c.048.008.097.004.143-.01s.088-.04.122-.075.06-.076.075-.122.018-.095.011-.143v-.854c0-.28.081-.403.259-.459-.178-.059-.259-.182-.259-.462v-.854a.3.3 0 0 0-.011-.143c-.015-.046-.04-.088-.075-.122s-.076-.06-.122-.075a.3.3 0 0 0-.143-.011h-.094v-.452h.228a.67.67 0 0 1 .767.735v.924c0 .15.077.217.2.217l.154.021z" class="H I"></path><path d="M115.094 78.421h-7.385a1.75 1.75 0 0 0-1.237.513c-.329.328-.513.773-.513 1.237v3.591c0 .464.184.909.513 1.237a1.75 1.75 0 0 0 1.237.513h1.929l1.463 3.314 2.061-3.314h1.932a1.75 1.75 0 0 0 1.237-.513c.329-.328.513-.773.513-1.237V80.15a1.75 1.75 0 0 0-1.75-1.729z" class="B C D G"></path><path d="M111.107 81.081a.36.36 0 0 1 .018-.153c.016-.049.042-.094.077-.133s.077-.069.124-.09.099-.032.151-.032a.37.37 0 0 1 .15.032c.047.021.09.052.125.09s.061.084.077.133.022.101.017.153c.005.051-.001.103-.017.153s-.043.094-.077.133a.38.38 0 0 1-.125.09c-.047.021-.099.032-.15.032s-.103-.011-.151-.032-.089-.052-.124-.09-.061-.084-.077-.133a.36.36 0 0 1-.018-.153zm.739 1.711c-.01.135-.045.267-.105.389l-.231.633h-.35l.182-.7a.35.35 0 0 1-.214-.332c0-.097.039-.19.108-.259s.161-.107.258-.107.19.038.259.107a.37.37 0 0 1 .107.259l-.014.01z" class="H I"></path><path d="M86.226 141.225h7.382c.464 0 .909-.184 1.237-.513a1.75 1.75 0 0 0 .513-1.237v-3.577a1.75 1.75 0 0 0-.513-1.237c-.328-.329-.773-.513-1.237-.513h-1.928l-.564-3.315-2.961 3.315h-1.928c-.464 0-.909.184-1.237.513a1.75 1.75 0 0 0-.513 1.237v3.591a1.75 1.75 0 0 0 .517 1.228c.328.326.771.508 1.233.508z" class="B C D G"></path><path d="M88.82 136.955l-1.55.595 1.55.578v.472l-2.072-.805v-.486l2.072-.805v.451zm1.638-1.634h.501l-1.484 4.238h-.501l1.484-4.238zm2.681 1.97v.486l-2.072.806v-.47l1.55-.577-1.55-.581v-.455l2.072.791z" class="H I"></path><path d="M39.284 115.063h7.382a1.75 1.75 0 0 0 1.75-1.733v-3.594a1.75 1.75 0 0 0-1.75-1.75h-1.928l.42-3.315-3.944 3.315h-1.928a1.75 1.75 0 0 0-1.75 1.75v3.594a1.75 1.75 0 0 0 1.75 1.733z" class="B C D G"></path><path d="M41.472 112.788a.35.35 0 0 1 .35-.35.35.35 0 0 1 .248.597.35.35 0 0 1-.597-.247zm.032-2.832h.665l-.112 2.1h-.444l-.108-2.1zm1.245.805h2.072v.451h-2.072v-.451zm0 1.088h2.072v.452h-2.072v-.452z" class="H I"></path><use xlink:href="#P" class="C"></use><use xlink:href="#Q" fill="#757a8b"></use><use xlink:href="#Q" class="C F"></use><use xlink:href="#P" class="B D E"></use><path d="M153.668 118.422a14.36 14.36 0 0 1-2.727 5.11l2.727-5.11z" class="C"></path><path d="M153.668 118.422a14.36 14.36 0 0 1-2.727 5.11m2.989-6.125l-.144.588" class="D E B"></path><path d="M153.909 110.971a14.26 14.26 0 0 1 .164 5.698l-.164-5.698z" class="C"></path><path d="M153.909 110.971a14.26 14.26 0 0 1 .164 5.698m-13.173-5.677s9.45-3.731 16.611 0" class="D E B"></path><path d="M149.205 100.054s.945 3.5 1.05 9.195l-1.05-9.195z" class="C"></path><g class="D B"><path d="M149.205 100.054s.945 3.5 1.05 9.195" class="E"></path><path d="M150.524 104.3c.119 1.088-.07 2.012-.423 2.068s-.739-.78-.858-1.865.067-2.016.42-2.072.739.794.861 1.869z" fill="#bfbfbf" class="G"></path><path d="M145.481 128.418H134.4a2.71 2.71 0 0 1-1.787-.668 2.72 2.72 0 0 1-.905-1.68 1.88 1.88 0 0 1-.031-.375V99.589c-.002-.127.009-.253.031-.378.089-.651.41-1.247.905-1.678a2.71 2.71 0 0 1 1.787-.666h31.402c.458.003.907.124 1.305.35" class="E"></path></g><defs><path id="B" d="M56.879 102.648h-4.204v4.204h4.204v-4.204z"></path><path id="C" d="M72.979 102.648h-4.203v4.204h4.203v-4.204z"></path><path id="D" d="M86.919 112.896h-4.203v4.203h4.203v-4.203z"></path><path id="E" d="M119.892 114.944c.152-.47.429-.889.802-1.211a1.02 1.02 0 0 1 .679-.227c.246.008.481.105.662.272l-.833-2.39c-.176-.622-.512-1.187-.973-1.638-.497-.406-1.316-.49-1.75 0 .303 1.829.336 3.694.098 5.533-.13.994-.298 2.135.371 2.881.185.15.507-.119.388-.326-.056-.098-.252-.105-.35-.098a17.78 17.78 0 0 1 .906-2.796z"></path><path id="F" d="M114.307 113.285c-.006.674.057 1.347.189 2.009.068.33.202.644.394.921s.44.513.726.692c-.35-1.302-.161-2.684.028-4.018l.35-2.45a1.81 1.81 0 0 1 .248-.812.63.63 0 0 1 .739-.266c-.35.203-.795-.07-1.005-.413a10.39 10.39 0 0 0-.535-1.078c-.469-.602-1.47-.735-2.163-.574.206 2.013.948 3.924 1.029 5.989z"></path><path id="G" d="M108.594 107.888a1.24 1.24 0 0 1-.371-.735c-.018-.138-.064-.271-.134-.392a1.04 1.04 0 0 0-.275-.308c-1.074.682-.486 2.681-1.575 3.342-.21.13-.48.203-.595.42-.045.102-.059.216-.038.326a.55.55 0 0 0 .154.29c.163.155.371.253.594.28.437.06.881 0 1.285-.176a2.4 2.4 0 0 0 1.005-.818c.427-.588.72-1.533.51-2.229a.54.54 0 0 1-.279.078c-.099 0-.196-.027-.281-.078z"></path><path id="H" d="M97.419 120.974c0 .073-.031.168.028.217s.213-.042.284-.14a1.87 1.87 0 0 1 .932-.674c.374-.121.776-.122 1.15-.002.284 0 .382-.437.196-.651-.106-.094-.23-.166-.365-.209s-.278-.058-.419-.043c-.283.033-.569-.014-.826-.136a.82.82 0 0 1-.35-.882l-.63 2.52z"></path><path id="I" d="M111.671 107.621c-.612-.08-1.26-.097-1.795-.409-.665-.392-1.124-1.225-1.897-1.26-.7-.031-1.201.598-1.589 1.165a2.12 2.12 0 0 1 .383-1.199 2.13 2.13 0 0 1 .996-.771 3.42 3.42 0 0 1 2.502.098 9.35 9.35 0 0 1 2.17 1.355c.284.188.533.425.735.7.865 1.375-.966.395-1.505.321z"></path><path id="J" d="M100.723 127.498a2.28 2.28 0 0 0 .112-.234c-.037.026-.067.061-.087.102s-.028.087-.025.132z"></path><path id="K" d="M101.763 122.076c-.07-.861.052-1.729.017-2.593s-.262-1.775-.892-2.37c-.904-.85-3.378-.416-2.549 1.201.121.221.317.39.553.478s.495.089.731.001a.94.94 0 0 0 .297-.22c.083-.093.147-.201.188-.319s.057-.243.049-.367-.041-.246-.096-.357c.486.77.726 1.671.688 2.581s-.353 1.788-.902 2.515c.629.573 1.062 1.328 1.239 2.16s.089 1.698-.252 2.477c.085-.058.186-.089.289-.089s.203.031.289.089a1.75 1.75 0 0 1 .444.791c.123.284.35.578.658.557.42-1.033.284-2.205 0-3.283s-.665-2.128-.752-3.252z"></path><path id="L" d="M114.933 116.799c-.133-.595-.409-1.148-.574-1.75-.381-1.369-.14-2.832-.315-4.242a7.32 7.32 0 0 0-2.6-4.708l-.627-.266a3.53 3.53 0 0 1 1.26 1.834c.487 1.673.637 3.416.854 5.145a68.93 68.93 0 0 0 1.453 7.938c.416-1.288.84-2.639.549-3.951z"></path><path id="M" d="M107.117 114.569l-3.804-7.168a23.22 23.22 0 0 0-2.674-3.909c-.469-.522-1.806-1.733-2.544-.935-.493.532.154 1.498-.451 2.076.14 0 .823-.067.896.024a10.65 10.65 0 0 1 2.349 6.787c.493-.389 1.172.15 1.557.647a114.18 114.18 0 0 1 6.65 9.485c-.399-1.445-.409-2.982-.836-4.417a15.69 15.69 0 0 0-1.142-2.59z"></path><path id="N" d="M121.377 120.446a15.38 15.38 0 0 0 1.095-4.844 7.93 7.93 0 0 0-1.099-4.386c-.203-.325-1.05-1.669-1.502-1.561-.822.196.256 1.624.445 1.981.7 1.348 1.439 2.772 1.4 4.295-.035 1.172-.529 2.275-.924 3.377-.299.767-.466 1.579-.494 2.401l-.181.27c-.523.744-1.308 1.264-2.198 1.452l1.015-3.15c.122-.374.164-.885-.053-1.144.072-.141.11-.297.109-.455-.049-.285-.149-.558-.298-.805-.469-1.008-.311-2.181-.196-3.287.14-1.365.193-2.768-.206-4.081s-1.327-2.53-2.629-2.964l.35.35-.441-.322.819 1.708-.301.43c.451-.238 1.029.105 1.235.571.162.486.197 1.005.102 1.508a30.15 30.15 0 0 0 .413 8.491c-.018.653-.191 1.292-.504 1.866a1.84 1.84 0 0 1-.735.731 1.83 1.83 0 0 1-1.015.217 1.84 1.84 0 0 0-.065-1.031c-.12-.331-.332-.62-.61-.834-.7.98-.287 2.502-.182 3.619.163 1.691.435 3.37.815 5.026.11-1.434.411-2.846.893-4.2l1.14 4.147c-.018-.389.056-.776.217-1.13a.84.84 0 0 1 .967-.448 1.18 1.18 0 0 1 .361.302c.099.124.172.266.216.419a12.86 12.86 0 0 1 .7 7.57c.469.263 1.092-.052 1.354-.521a3.14 3.14 0 0 0 .249-1.575l-.262-13.993z"></path><path id="O" d="M60.144 124.075c.48-.742.949-1.768.819-2.643-.252-1.718-1.05-3.696-.7-5.397l.675-3.258"></path><path id="P" d="M157.5 110.992c-.002 1.391-.119 2.779-.35 4.151-1.015 6.058-4.2 10.475-7.966 10.475a4.68 4.68 0 0 1-1.001-.105c-4.113-.871-7.301-7.038-7.301-14.521 0-8.078 3.717-10.938 8.302-10.938s8.316 2.846 8.316 10.938z"></path><path id="Q" d="M154.501 111.083c.308 4.333-.434 8.687-1.684 12.848 3.129-2.569 4.568-6.608 5.87-10.44.945-2.783 1.9-5.653 1.729-8.586s-1.75-5.988-4.494-6.999c-1.376-.496-2.886-.473-4.246.066-2.306.928-1.05 1.677-.073 3.335 1.697 2.996 2.688 6.339 2.898 9.776z"></path></defs></svg>